<?xml version="1.0" encoding="UTF-8" standalone="no"?>
<svg
   xmlns:dc="http://purl.org/dc/elements/1.1/"
   xmlns:cc="http://creativecommons.org/ns#"
   xmlns:rdf="http://www.w3.org/1999/02/22-rdf-syntax-ns#"
   xmlns:svg="http://www.w3.org/2000/svg"
   xmlns="http://www.w3.org/2000/svg"
   xmlns:xlink="http://www.w3.org/1999/xlink"
   viewBox="0 0 226.7717 226.7717"
   id="svg2"
   height="226.7717"
   width="226.7717"
   version="1.1">
  <metadata
     id="metadata83">
    <rdf:RDF>
      <cc:Work
         rdf:about="">
        <dc:format>image/svg+xml</dc:format>
        <dc:type
           rdf:resource="http://purl.org/dc/dcmitype/StillImage" />
      </cc:Work>
    </rdf:RDF>
  </metadata>
  <defs
     id="defs81" />
  <g
     id="g4">
    <g
       id="g6">
      <defs
         id="defs8">
        <radialGradient
           r="0.66000003"
           cy="0.43000001"
           cx="0.43000001"
           id="grad1">
 &gt;
    <stop
   id="stop11"
   stop-opacity="1"
   stop-color="#3c98cf"
   offset="0%" />
<stop
   id="stop13"
   stop-opacity="1"
   stop-color="#002869"
   offset="100%" />
</radialGradient>
      </defs>
      <path
         id="path15"
         style="fill:url(#grad1)"
         d="m 122.685,105.5053 c -4.4045,4.8746 -11.9116,5.2465 -16.7723,0.8321 -4.8626,-4.4135 -5.2377,-11.9496 -0.8411,-16.8244 4.4016,-4.8754 11.9147,-5.2425 16.7753,-0.829 4.8587,4.4147 5.2346,11.9457 0.8381,16.8213 l 0,0 z" />
      <defs
         id="defs17">
        <linearGradient
           id="grad2">
          <stop
             id="stop20"
             stop-opacity="1"
             stop-color="#3c98cf"
             offset="0%" />
          <stop
             id="stop22"
             stop-opacity="1"
             stop-color="#002869"
             offset="100%" />
        </linearGradient>
        <linearGradient
           gradientUnits="objectBoundingBox"
           gradientTransform="matrix(0.37460659,-0.92718385,0.92718385,0.37460659,-0.15089522,0.77628863)"
           y2="1"
           x2="0"
           y1="0"
           x1="0"
           id="grad3"
           xlink:href="#grad2" />
      </defs>
      <path
         id="path25"
         style="fill:url(#grad3)"
         d="m 116.9713,56.768 c 0.9962,0.9781 1.9142,1.9803 2.7502,2.9802 4.7787,5.7267 7.013,11.3517 7.013,11.3517 3.0493,0.5658 5.8988,0.722 8.5532,0.5908 0.1718,-0.0099 0.332,-0.0099 0.5069,-0.023 0.1582,-0.013 0.3062,-0.032 0.4641,-0.0448 5.8779,-0.5293 13.5188,-2.7834 20.4986,-9.7825 0.2401,-0.2398 0.4791,-0.4958 0.7181,-0.7479 -1.0801,-1.2893 -2.1951,-2.5614 -3.4014,-3.7756 -20.2857,-20.2165 -51.9418,-21.9808 -74.2227,-5.3197 17.4824,-8.473 29.595,-2.6272 37.12,4.7708 l 0,0 z" />
      <defs
         id="defs27">
        <linearGradient
           id="grad4">
          <stop
             id="stop30"
             stop-opacity="1"
             stop-color="#3c98cf"
             offset="0%" />
          <stop
             id="stop32"
             stop-opacity="1"
             stop-color="#002869"
             offset="100%" />
        </linearGradient>
        <linearGradient
           gradientUnits="objectBoundingBox"
           gradientTransform="matrix(-0.99026807,0.1391731,-0.1391731,-0.99026807,1.0647206,0.92554748)"
           y2="1"
           x2="0"
           y1="0"
           x1="0"
           id="grad5"
           xlink:href="#grad4" />
      </defs>
      <path
         id="path35"
         style="fill:url(#grad5)"
         d="m 76.6951,114.5405 c 0.349,-1.3543 0.76,-2.6493 1.2051,-3.8735 2.5714,-7.0019 6.3247,-11.7485 6.3247,-11.7485 -1.0351,-2.9246 -2.3242,-5.4699 -3.7635,-7.7031 -0.0958,-0.144 -0.1761,-0.2832 -0.2739,-0.4281 -0.089,-0.1309 -0.1811,-0.2492 -0.2702,-0.379 -3.3994,-4.8266 -9.1701,-10.3143 -18.7221,-12.8608 -0.3272,-0.0878 -0.6676,-0.1669 -1.0064,-0.248 -0.5767,1.5813 -1.1213,3.1814 -1.5686,4.8348 -7.3671,27.6735 6.9344,55.9712 32.5037,66.9367 C 75.0448,138.1664 74.0506,124.7548 76.6951,114.5405 l 0,0 z" />
      <defs
         id="defs37">
        <linearGradient
           id="grad6">
          <stop
             id="stop40"
             stop-opacity="1"
             stop-color="#3c98cf"
             offset="0%" />
          <stop
             id="stop42"
             stop-opacity="1"
             stop-color="#002869"
             offset="100%" />
        </linearGradient>
        <linearGradient
           gradientUnits="objectBoundingBox"
           gradientTransform="matrix(0.61566148,0.78801075,-0.78801075,0.61566148,0.58617464,-0.20183611)"
           y2="1"
           x2="0"
           y1="0"
           x1="0"
           id="grad7"
           xlink:href="#grad6" />
      </defs>
      <path
         id="path45"
         style="fill:url(#grad7)"
         d="m 123.0019,153.5101 0.001,0 c 1.6551,-0.29 3.3147,-0.6197 4.9692,-1.0586 27.6497,-7.4561 45.007,-33.9907 41.7167,-61.6151 -1.4042,19.3753 -12.5217,26.9426 -22.69,29.7589 l 0,0 c -1.3452,0.3739 -2.6734,0.6671 -3.9566,0.893 -7.3489,1.2752 -13.3376,0.3972 -13.3376,0.3972 -2.0143,2.3582 -3.5755,4.7475 -4.7866,7.1119 -0.0791,0.1548 -0.1591,0.294 -0.235,0.4511 -0.0692,0.144 -0.1262,0.2809 -0.1931,0.4218 -2.4815,5.3579 -4.3478,13.0989 -1.7773,22.6461 0.0871,0.3269 0.19,0.6609 0.2889,0.9937 z" />
      <defs
         id="defs47">
        <linearGradient
           id="grad8">
          <stop
             id="stop50"
             stop-opacity="1"
             stop-color="#3c98cf"
             offset="0%" />
          <stop
             id="stop52"
             stop-opacity="1"
             stop-color="#002869"
             offset="100%" />
        </linearGradient>
        <linearGradient
           gradientUnits="objectBoundingBox"
           gradientTransform="matrix(-0.82903757,-0.5591929,0.5591929,-0.82903757,0.63492233,1.1941152)"
           y2="1"
           x2="0"
           y1="0"
           x1="0"
           id="grad9"
           xlink:href="#grad8" />
      </defs>
      <path
         id="path55"
         style="fill:url(#grad9)"
         d="m 79.8513,51.9972 c 0,0 -12.3425,7.7291 -18.7922,23.2441 1.69,0.2939 18.9053,3.7654 25.3221,22.897 1.5672,-1.0011 6.3819,-4.8026 9.6172,-15.2839 3.9115,-12.6708 11.3386,-22.0179 20.9729,-26.0864 0,0 -12.1997,-17.3863 -37.12,-4.7708 l 0,0 z" />
      <defs
         id="defs57">
        <linearGradient
           id="grad10">
          <stop
             id="stop60"
             stop-opacity="1"
             stop-color="#3c98cf"
             offset="0%" />
          <stop
             id="stop62"
             stop-opacity="1"
             stop-color="#002869"
             offset="100%" />
        </linearGradient>
        <linearGradient
           gradientUnits="objectBoundingBox"
           gradientTransform="matrix(0.08715574,0.9961947,-0.9961947,0.08715574,0.95451948,-0.04167522)"
           y2="1"
           x2="0"
           y1="0"
           x1="0"
           id="grad11"
           xlink:href="#grad10" />
      </defs>
      <path
         id="path65"
         style="fill:url(#grad11)"
         d="m 118.9586,143.2161 c -0.003,-6.4227 1.7781,-14.9249 8.9122,-22.9298 l 0.0799,-0.1242 c -1.1672,-1.2452 -5.2416,-4.3115 -15.7241,-1.9213 -12.9288,2.9484 -27.1906,2.6065 -35.5315,-3.7003 0,0 -8.9564,19.2563 14.4288,34.5305 0,0 12.8457,6.8137 29.4878,4.6577 -0.2991,-0.8304 -1.6511,-4.8748 -1.6531,-10.5126 l 0,0 z" />
      <defs
         id="defs67">
        <linearGradient
           id="grad12">
          <stop
             id="stop70"
             stop-opacity="1"
             stop-color="#3c98cf"
             offset="0%" />
          <stop
             id="stop72"
             stop-opacity="1"
             stop-color="#002869"
             offset="100%" />
        </linearGradient>
        <linearGradient
           gradientUnits="objectBoundingBox"
           gradientTransform="matrix(0.98162718,-0.190809,0.190809,0.98162718,-0.08621809,0.10459091)"
           y2="1"
           x2="0"
           y1="0"
           x1="0"
           id="grad13"
           xlink:href="#grad12" />
      </defs>
      <path
         id="path75"
         style="fill:url(#grad13)"
         d="m 158.9627,62.9466 c -1.8403,2.2323 -10.5783,11.3906 -25.1642,11.4016 -2.3474,0 -4.8408,-0.2381 -7.4751,-0.7822 l -0.1239,-0.0289 c -0.4802,1.7643 -0.8771,6.7618 6.2407,14.4379 9.0151,9.7221 15.85,22.2438 14.559,32.6203 0,0 21.1577,-1.8714 22.69,-29.7589 0,0 -0.5211,-14.5479 -10.7265,-27.8898 z" />
    </g>
    <path
       id="path77"
       style="fill:#565757;fill-rule:evenodd"
       d="m 64.0128,171.375 c 1.0211,-0.174 2.454,-0.3041 4.4737,-0.3041 2.0423,0 3.4985,0.3911 4.4756,1.1741 0.9331,0.737 1.5641,1.9542 1.5641,3.3885 0,1.4335 -0.4779,2.6504 -1.3478,3.4747 -1.1282,1.0639 -2.8015,1.5432 -4.7569,1.5432 -0.4339,0 -0.826,-0.0224 -1.129,-0.0655 l 0,5.2348 -3.2797,0 0,-14.4457 z m 3.2797,6.6473 c 0.2821,0.0654 0.6299,0.087 1.1069,0.087 1.7603,0 2.8466,-0.8921 2.8466,-2.3888 0,-1.3473 -0.9343,-2.1503 -2.5855,-2.1503 -0.6729,0 -1.129,0.064 -1.368,0.1301 l 0,4.322 z m 23.5466,0.3274 c 0,4.7993 -2.9107,7.7099 -7.1904,7.7099 -4.3444,0 -6.8856,-3.2797 -6.8856,-7.45 0,-4.3883 2.802,-7.6677 7.1246,-7.6677 4.4968,0 6.9514,3.3664 6.9514,7.4078 z m -10.5795,0.1953 c 0,2.8655 1.3479,4.8875 3.5631,4.8875 2.2374,0 3.5187,-2.1303 3.5187,-4.9762 0,-2.6278 -1.2594,-4.885 -3.5405,-4.885 -2.2374,0 -3.5413,2.1283 -3.5413,4.9737 z m 24.372,6.8644 c -0.608,0.3035 -1.9763,0.6502 -3.7565,0.6502 -5.0615,0 -7.67,-3.1711 -7.67,-7.3409 0,-4.9969 3.5635,-7.7771 7.9949,-7.7771 1.7163,0 3.0197,0.347 3.6056,0.6528 l -0.6729,2.6263 c -0.6732,-0.282 -1.6073,-0.5428 -2.7816,-0.5428 -2.6283,0 -4.6707,1.5863 -4.6707,4.8455 0,2.9311 1.7385,4.779 4.6936,4.779 0.9992,0 2.1064,-0.2186 2.7587,-0.4794 l 0.4989,2.5864 z m 5.6248,-4.1942 -1.5191,4.606 -1.9565,0 4.9745,-14.6412 2.2805,0 4.9958,14.6412 -2.0194,0 -1.5642,-4.606 -5.1916,0 z m 4.8016,-1.4766 -1.4332,-4.2128 c -0.3271,-0.9573 -0.5451,-1.8255 -0.7611,-2.6728 l -0.0428,0 c -0.2183,0.8694 -0.4572,1.7583 -0.7393,2.6507 l -1.434,4.2349 4.4104,0 z m 8.8183,-6.9516 -4.4538,0 0,-1.607 10.8405,0 0,1.607 -4.4756,0 0,13.0337 -1.9111,0 0,-13.0337 z m 20.6354,5.5627 c 0,5.0377 -3.0623,7.7099 -6.7989,7.7099 -3.8654,0 -6.5818,-2.9973 -6.5818,-7.4296 0,-4.6468 2.8893,-7.6881 6.7989,-7.6881 3.9966,0 6.5818,3.0623 6.5818,7.4078 z m -11.3605,0.2375 c 0,3.1272 1.6943,5.9324 4.6707,5.9324 2.9985,0 4.6916,-2.759 4.6916,-6.0849 0,-2.9092 -1.5211,-5.9508 -4.6706,-5.9508 -3.1283,0 -4.6917,2.8897 -4.6917,6.1033 z m 26.9584,0.8036 c -0.11,-2.0412 -0.2398,-4.4966 -0.2189,-6.3207 l -0.0649,0 c -0.5,1.7161 -1.1092,3.5615 -1.8465,5.5599 l -2.5852,7.1045 -1.434,0 -2.3672,-6.9727 c -0.6942,-2.0647 -1.2824,-3.9546 -1.6943,-5.6917 l -0.0431,0 c -0.0439,1.8241 -0.1519,4.2795 -0.282,6.473 l -0.3932,6.2781 -1.8011,0 1.021,-14.6412 2.4095,0 2.4993,7.0809 c 0.608,1.8032 1.1092,3.4124 1.4782,4.9312 l 0.0638,0 c 0.3691,-1.4777 0.8901,-3.0844 1.5424,-4.9312 l 2.6064,-7.0809 2.4123,0 0.913,14.6412 -1.8462,0 -0.3693,-6.4304 z" />
  </g>
</svg>
